<svg xmlns="http://www.w3.org/2000/svg" xmlns:xlink="http://www.w3.org/1999/xlink" width="20" height="20" viewBox="0 0 20 20">
  <g transform="translate(-943 -122)">
      <path d="M959.82 122.13a.41.41 0 0 0-.59 0l-5.94 5.94a.41.41 0 0 1-.58 0l-5.94-5.94a.41.41 0 0 0-.59 0l-3.05 3.05a.41.41 0 0 0 0 .59l5.94 5.94c.16.16.16.42 0 .58l-5.94 5.94a.41.41 0 0 0 0 .59l3.05 3.05c.16.16.43.16.59 0l5.94-5.94a.41.41 0 0 1 .58 0l5.94 5.94c.16.16.43.16.59 0l3.05-3.05a.41.41 0 0 0 0-.59l-5.94-5.94a.41.41 0 0 1 0-.58l5.94-5.94a.41.41 0 0 0 0-.59z"/>
   </g>

</svg>