<svg xmlns="http://www.w3.org/2000/svg" xmlns:xlink="http://www.w3.org/1999/xlink" width="30" height="30" viewBox="0 0 30 30">
    <g transform="translate(-1051 -540)">
      <path d="M1066 570a14.67 14.67 0 0 1-7.57-2.06 14.9 14.9 0 0 1-6.89-8.95 14.66 14.66 0 0 1-.54-3.99 14.67 14.67 0 0 1 2.05-7.58A14.96 14.96 0 0 1 1066 540c2.06 0 4 .4 5.84 1.18 1.83.8 3.42 1.86 4.77 3.21A15.18 15.18 0 0 1 1081 555a14.66 14.66 0 0 1-2.05 7.57 14.9 14.9 0 0 1-8.96 6.89c-1.28.36-2.61.54-3.99.54zm7.23-21.18h-14.22a.52.52 0 0 0-.36.13c-.1.1-.15.22-.15.38v1.59c0 .08.03.12.09.12l7.47 4.26.06.03c.04 0 .07-.01.09-.03l7.23-4.26a.25.25 0 0 1 .09-.03l.09-.03c.08 0 .12-.04.12-.12v-1.53a.48.48 0 0 0-.15-.38.52.52 0 0 0-.36-.13zm-10.2 6.39c.02-.02.03-.05.03-.09 0-.06-.02-.09-.06-.09l-4.29-2.46c-.06-.02-.11-.02-.15 0-.04 0-.06.03-.06.09v6.45c0 .06.03.1.09.12h.06c.04 0 .06-.01.06-.03zm5.22.48c-.02-.06-.07-.07-.15-.03l-1.65.96a.6.6 0 0 1-.63 0l-1.44-.81c-.06-.04-.11-.04-.15 0l-5.49 5.1c-.02.02-.03.06-.03.12 0 .02.02.05.06.09l.24.06h14.07c.04 0 .08-.02.12-.06 0-.08-.01-.13-.03-.15zm5.4-3.24h-.12l-4.08 2.43c-.04 0-.06.03-.06.09-.02.02-.01.05.03.09l4.08 4.4c.04.05.07.07.09.07h.06c.06-.06.09-.1.09-.12v-6.84c0-.04-.03-.08-.09-.12z"/>
   </g>
</svg>