<svg xmlns="http://www.w3.org/2000/svg" xmlns:xlink="http://www.w3.org/1999/xlink" width="30" height="30" viewBox="0 0 30 30">
   <g transform="translate(-610 -666)">
      <path d="M618.74 683.4a3.4 3.4 0 1 1 4.81-4.8 3.4 3.4 0 0 1-4.81 4.8zm16.85 8.2a14.94 14.94 0 0 1-21.18 0 14.94 14.94 0 0 1 0-21.2 14.94 14.94 0 0 1 21.18 0 14.94 14.94 0 0 1 0 21.2zm.3-11.95h-8.48c-.2 0-.3-.1-.34-.24a5.73 5.73 0 0 0-1.59-2.74 6.1 6.1 0 0 0-8.67 0 6.1 6.1 0 0 0 0 8.66 6.1 6.1 0 0 0 10.26-2.74c.05-.15.15-.24.34-.24h.77c.2 0 .34.14.34.34v.48c0 .38.28.67.67.67h1.35c.38 0 .67-.29.67-.67v-.48c0-.2.15-.34.34-.34h.48c.2 0 .34.14.34.34v.48c0 .38.29.67.67.67h1.35c.2 0 .39-.1.48-.2.1-.09.2-.28.2-.47v-.48c0-.2.14-.34.33-.34h.48c.2 0 .39-.1.48-.2.1-.1.2-.28.2-.48v-1.34c0-.2-.1-.39-.2-.49a.74.74 0 0 0-.48-.19z"/>
   </g>
</svg>