<svg xmlns="http://www.w3.org/2000/svg" xmlns:xlink="http://www.w3.org/1999/xlink" width="30" height="30" viewBox="0 0 30 30">
   <g transform="translate(-783 -611)">
      <path d="M798 632.44a1.17 1.17 0 1 1 0 2.34 1.17 1.17 0 0 1 0-2.34zm3.93-13.98L802 631c-.02-.03-.47 0-2 0h-5c-.37 0-.93.17-.93-.18v-12.36c0-.35.3-.64.66-.64h6.54c.37 0 .66.29.66.64zM813 626a15 15 0 1 1-30 0 15 15 0 0 1 30 0zm-9-7c0-1.15-.85-3-2-3h-8c-1.15 0-2 1.85-2 3l.16 14.4c0 1.15.7 2.6 1.84 2.6h8c1.15 0 2-1.85 2-3z"/>
   </g>
</svg>