<svg xmlns="http://www.w3.org/2000/svg" xmlns:xlink="http://www.w3.org/1999/xlink" width="30" height="30" viewBox="0 0 30 30">
   <g transform="translate(-784 -510)">
      <path d="M814.06 525.06a15 15 0 1 1-30 0 15 15 0 0 1 30 0zm-6.64 5.01l-.08-.25c-.2-.6-.85-1.2-1.45-1.37l-2.22-.6c-.6-.17-1.46.05-1.9.49l-.8.8a8.52 8.52 0 0 1-6-5.99l.81-.8c.44-.44.66-1.3.5-1.9l-.6-2.22a2.37 2.37 0 0 0-1.38-1.45l-.25-.08a2 2 0 0 0-1.88.44l-1.2 1.2c-.21.21-.35.82-.35.83a14.19 14.19 0 0 0 14.3 14.32c.02 0 .64-.13.86-.34l1.2-1.2a2 2 0 0 0 .44-1.88z"/>
   </g>
</svg>