<svg xmlns="http://www.w3.org/2000/svg" xmlns:xlink="http://www.w3.org/1999/xlink" width="50" height="29" viewBox="0 0 50 29">
   <g transform="translate(-636 -377)">
      <path d="M638.83 379.75a.75.75 0 0 1 .07-1.06 8.58 8.58 0 0 1 2.73-1.65c.38-.14.8.06.94.45a.75.75 0 0 1-.43.95c-.84.31-1.6.77-2.27 1.37a.72.72 0 0 1-1.04-.06zm46.34 6.84l-.85.66-15.82 17.95a2.32 2.32 0 0 1-2.21.76 2.35 2.35 0 0 1-1.77-1.54l-.57-1.6-1.99 1.53a1.64 1.64 0 0 1-1.83.1 1.68 1.68 0 0 1-.79-1.7l1.3-8.69a.66.66 0 0 0-.21-.6l-6.49-5.8a1.69 1.69 0 0 1 1-2.93l29-1.57c.85-.04 1.58.45 1.87 1.26.29.8.04 1.66-.64 2.17zm-6.88 5.27l-13.12 10.03.72 2.02c.11.3.36.52.68.58.32.07.62-.04.84-.28zm5.08-5.75l-13.12 4.86a.73.73 0 0 1-.94-.44.75.75 0 0 1 .44-.96l13.12-4.86-27.85 1.51a.17.17 0 0 0-.16.13c-.03.08-.01.14.05.2l6.5 5.8.2.23 4.82-1.78c.38-.14.8.06.93.44a.75.75 0 0 1-.43.96l-4.81 1.78-.03.3-1.3 8.7c-.01.08.02.15.09.19.07.04.14.04.2-.01l2.77-2.12zm-26.32 8.9a.75.75 0 0 1-.44.96l-4.27 1.59a10.14 10.14 0 0 1-7.88-.34 7.95 7.95 0 0 1-4-4.24 8.85 8.85 0 0 1-3.69-11.39c.17-.38.6-.54.98-.37.36.18.52.62.35 1a7.35 7.35 0 0 0 1.81 8.57 8.13 8.13 0 0 1 .7-4.27 5.88 5.88 0 0 1 3.64-3.2 5.72 5.72 0 0 1 4.17.34 5.98 5.98 0 0 1-.5 10.93 5.71 5.71 0 0 1-4.48-.19l-.62-.3c.6.75 1.37 1.36 2.26 1.77a8.65 8.65 0 0 0 6.76.3l4.27-1.6c.38-.14.8.06.94.44zm-12.99-1.96a4.37 4.37 0 0 0 5.85-2.25c.48-1.12.5-2.36.03-3.5a4.4 4.4 0 0 0-5.27-2.56 4.41 4.41 0 0 0-2.74 2.4 6.63 6.63 0 0 0-.3 4.77z"/>
   </g>
</svg>