<svg xmlns="http://www.w3.org/2000/svg" xmlns:xlink="http://www.w3.org/1999/xlink" width="8" height="10" viewBox="0 0 8 10"><defs><path id="cch1a" d="M627.05 542.54v5.84c0 .17-.06.32-.18.44a.57.57 0 0 1-.42.19h-6.82a.57.57 0 0 1-.43-.19.61.61 0 0 1-.17-.44v-8.76a.62.62 0 0 1 .6-.63h4.01c.17 0 .35.05.55.13.2.1.7-.24.81-.12l2 2c.12.12-.16.76-.08.97.09.2.13.4.13.57zM624 542h2l-1.9-1.98a.65.65 0 0 0-.26-.14zm2.06.06c.05.06-.1-.19-.06-.06zm-.06.94h-2c-.17 0-.67.1-.79-.02a.62.62 0 0 1-.17-.44L623 540h-3v8h6zm-5.37 2.88l.35.11s.05-.02.02.01v.02c-.02.04 0 .1-.37-.14zm.37.12h4c.03.02 0-.06 0 0v.02c-.04.05-.2.16 0-.02v1h-4c-.06 0 .04-.96 0-1zm4 1c.02-.02.02 0 .02 0v.01H625s-.02 0 0-.01zm.17-2.08c.11-.07.24-.17.22-.14l-.22.14zm0-.91c.1.01.2.03.22.05.02.02-.1-.02-.22-.05zm-4.19-.01H625v1h-3.81-.19c-.06 0 .04.04 0 0 .02-.02.16 0 .19 0H621v-1-.01h-.01c-.05-.01-.2.01-.16.01zm4.02 1c.03 0 .1-.03.17-.08-.09.06-.17.1-.17.08zm0-1c0-.03.08-.01.17.01L625 544z"/></defs><g><g opacity=".5" transform="translate(-619 -539)"><use xlink:href="#cch1a"/></g></g></svg>