<svg xmlns="http://www.w3.org/2000/svg" xmlns:xlink="http://www.w3.org/1999/xlink" width="30" height="30" viewBox="0 0 30 30">
   <g transform="translate(-1050 -631)">
      <path d="M1058.78 649.05h9.33v1.03h-9.33zm0-2.3h9.33v1.03h-9.33zm0-2.3h9.33v1.03h-9.33zm0 7.03h9.33v1.04h-9.33zM1080 646a15 15 0 1 1-30 0 15 15 0 0 1 30 0zm-9.84-3.6v-1.82c0-1.01-.81-1.83-1.82-1.83h-9.8c-1 0-1.82.82-1.82 1.83v13.44c0 1 .82 1.82 1.83 1.82h9.8c1 0 1.81-.82 1.81-1.82zm2.34-2.34v-1.82c0-1-.82-1.82-1.82-1.82h-9.8c-.82 0-1.52.55-1.74 1.3h9.2a2.86 2.86 0 0 1 2.86 2.86v12.85c.75-.23 1.3-.92 1.3-1.75zm-13.72 2.08h9.33v1.04h-9.33z"/>
   </g>
</svg>